<svg
 fill="#000000" width="800px" height="800px" viewBox="0 0 24 24" id="music-collection" data-name="Flat Color" xmlns="http://www.w3.org/2000/svg" class="icon flat-color">
 <path id="primary" d="M18,4V16a2,2,0,0,1-2,2H4a2,2,0,0,1-2-2V4A2,2,0,0,1,4,2H16A2,2,0,0,1,18,4Zm4,13V5a1,1,0,0,0-2,0V17a3,3,0,0,1-3,3H7a1,1,0,0,0,0,2H17A5,5,0,0,0,22,17Z" style="fill: white;"></path>
 <path id="secondary" d="M13,5H10A1,1,0,0,0,9,6V9.18A3,3,0,1,0,11,12V7h2a1,1,0,0,0,0-2Z" style="fill: rgb(44, 169, 188);"></path>
 </svg>